# xmcd
#
# Track frame offsets:
#	150
#	21832
#	39097
#	55392
#	68230
#	83857
#	98765
#	111027
#	132507
#	148760
#	168375
#	182350
#	196695
#	213709
#	229520
#
# Disc length: 3262 seconds
#
# Revision: 0
# Processed by: cddbd v1.4PL0 Copyright (c) Steve Scherf et al.
# Submitted via: EasyCDDAExtractor 5.0.5.1
#
DISCID=c90cbc0f
DTITLE=Kenny Rogers - With Love 1
DYEAR=1997
DGENRE=
TTITLE0=Have I Told You Lately That I Love You
TTITLE1=I Swear
TTITLE2=The Wind Beneath My Wings
TTITLE3=As Time Goes By
TTITLE4=Unchained Melody
TTITLE5=Crazy
TTITLE6=Somewhere My Love
TTITLE7=Always and Forever
TTITLE8=Evergreen
TTITLE9=She Believes In Me
TTITLE10=You Send Me
TTITLE11=You Light Up My Life
TTITLE12=Stardust
TTITLE13=Through The Years
TTITLE14=I Can't Help Falling In Love
EXTD=
EXTT0=
EXTT1=
EXTT2=
EXTT3=
EXTT4=
EXTT5=
EXTT6=
EXTT7=
EXTT8=
EXTT9=
EXTT10=
EXTT11=
EXTT12=
EXTT13=
EXTT14=
PLAYORDER=
